<?xml version="1.0" standalone="no"?>
<!DOCTYPE svg PUBLIC "-//W3C//DTD SVG 20010904//EN"
 "http://www.w3.org/TR/2001/REC-SVG-20010904/DTD/svg10.dtd">
<svg version="1.0" xmlns="http://www.w3.org/2000/svg"
 width="500.000000pt" height="500.000000pt" viewBox="0 0 500.000000 500.000000"
 preserveAspectRatio="xMidYMid meet">
<metadata>
Created by potrace 1.11, written by Peter Selinger 2001-2013
</metadata>
<g transform="translate(0.000000,500.000000) scale(0.100000,-0.100000)"
fill="#000000" stroke="none">
<path d="M2400 4853 c-55 -4 -304 -49 -385 -69 -79 -20 -209 -72 -251 -101
-19 -12 -49 -30 -66 -39 -36 -19 -202 -185 -258 -259 -42 -55 -144 -277 -160
-348 -5 -25 -18 -68 -29 -94 -10 -27 -37 -125 -59 -218 -35 -149 -48 -214 -68
-352 -4 -30 -6 -32 -77 -43 -115 -18 -160 -37 -223 -91 -117 -103 -167 -183
-230 -364 -38 -108 -39 -113 -38 -250 1 -85 8 -177 18 -235 28 -152 70 -237
216 -434 39 -53 113 -106 180 -129 25 -9 61 -22 82 -31 60 -25 124 -37 291
-51 l158 -13 67 -74 c37 -40 146 -152 242 -248 267 -267 295 -305 459 -635
196 -394 218 -430 321 -519 66 -59 96 -78 140 -90 80 -23 221 -30 315 -17 86
12 402 111 444 139 14 9 53 31 86 47 69 35 184 144 215 205 12 23 33 87 47
143 24 99 25 105 13 232 -10 108 -23 195 -42 286 -2 10 14 15 62 19 68 6 94
17 122 55 15 20 18 77 28 486 15 643 15 858 2 891 -18 44 -84 72 -154 65 -91
-8 -148 -64 -148 -144 0 -26 45 -103 60 -103 4 0 18 -10 32 -23 20 -19 24 -30
20 -61 l-4 -38 -92 6 c-131 10 -300 27 -305 32 -3 2 -3 54 -2 116 3 135 -14
238 -40 238 -10 0 -34 7 -53 16 -65 31 -166 -2 -206 -68 -28 -46 -25 -95 6
-142 22 -32 24 -42 15 -63 -6 -13 -11 -35 -11 -49 0 -28 19 -27 -232 -8 l-88
7 0 124 c0 68 -5 144 -11 169 -11 41 -17 48 -65 72 -51 25 -57 25 -111 14 -47
-9 -65 -19 -95 -51 -33 -35 -38 -46 -38 -90 0 -48 2 -51 60 -103 46 -40 60
-59 60 -80 0 -15 -4 -29 -8 -32 -18 -11 -203 19 -212 34 -28 44 -2 166 61 291
36 73 136 216 175 251 41 36 232 128 302 145 63 15 72 20 70 37 -5 34 -54 50
-158 50 -93 1 -96 0 -158 -37 -34 -21 -111 -87 -170 -145 -96 -94 -114 -119
-159 -207 -63 -124 -93 -228 -93 -324 l0 -72 -27 3 -28 3 -5 145 c-4 119 -8
151 -23 174 -38 58 -154 77 -222 37 l-35 -20 -6 26 c-4 14 -4 99 -2 188 6 177
7 179 95 330 56 95 67 112 164 255 50 74 125 187 166 250 42 63 92 140 112
169 31 48 83 96 187 177 20 15 25 26 20 39 -6 16 -15 17 -82 11 -87 -8 -140
-36 -175 -93 -12 -18 -48 -66 -81 -105 -33 -39 -71 -94 -85 -122 -14 -28 -58
-94 -98 -146 -40 -52 -79 -108 -88 -125 -8 -16 -40 -67 -71 -113 -31 -46 -56
-88 -56 -93 0 -5 -22 -56 -48 -112 -79 -165 -77 -156 -76 -402 1 -212 3 -224
32 -332 l30 -113 -37 0 c-78 0 -446 32 -455 40 -9 9 -40 154 -51 244 -3 32
-14 77 -23 100 -25 62 -21 374 7 527 11 63 29 168 41 233 12 66 28 132 36 147
15 31 51 145 79 253 12 45 34 92 63 134 24 36 52 84 62 106 26 62 157 184 243
228 103 53 258 113 357 138 96 25 232 30 295 12 22 -7 103 -17 180 -22 195
-15 251 -31 425 -123 159 -84 299 -193 465 -361 102 -103 176 -191 200 -236 7
-14 27 -78 44 -142 25 -93 31 -137 31 -214 0 -91 -2 -102 -37 -173 -34 -71
-72 -133 -123 -198 -63 -83 -111 -166 -108 -188 3 -24 5 -24 78 27 111 77 238
209 282 293 48 93 73 214 64 314 -12 129 -82 299 -166 405 -101 126 -465 481
-547 534 -23 15 -57 37 -75 49 -68 45 -216 121 -283 146 -71 26 -178 49 -318
67 -77 10 -105 10 -197 3z m-1287 -1760 c3 -102 13 -208 25 -268 18 -95 18
-100 1 -107 -30 -12 -60 -41 -86 -85 -15 -27 -32 -43 -44 -43 -29 0 -247 48
-268 59 -20 11 -81 120 -81 146 0 10 14 57 32 104 32 86 82 171 132 224 14 15
26 31 26 35 0 16 117 76 170 88 96 21 87 35 93 -153z m72 -505 c7 -37 7 -38
-23 -38 -47 0 -62 9 -62 40 0 30 14 46 45 52 24 5 31 -5 40 -54z m-514 16 c43
-52 242 -100 434 -103 55 -1 104 -6 110 -11 5 -4 89 -13 185 -19 96 -6 191
-14 210 -16 19 -3 98 -7 175 -10 77 -3 154 -9 170 -13 l30 -9 -1 -139 c0 -76
-4 -222 -8 -324 l-8 -185 -176 12 c-515 37 -642 56 -757 113 -153 75 -254 202
-347 434 -35 89 -62 286 -39 286 5 0 14 -7 22 -16z m1328 -63 c0 -20 -3 -29
-6 -21 -21 64 -22 69 -7 63 9 -3 14 -19 13 -42z m381 -150 c220 -16 217 -15
223 -54 6 -34 -11 -555 -19 -594 -4 -21 -10 -23 -62 -23 -31 1 -93 7 -137 15
-44 8 -104 15 -132 15 l-53 0 0 133 c0 194 12 527 19 523 3 -2 76 -9 161 -15z
m454 -39 c3 -5 88 -15 190 -22 l186 -13 -6 -301 c-3 -166 -7 -312 -10 -324 -5
-22 -8 -23 -52 -18 -26 3 -110 12 -187 20 -77 7 -141 14 -143 15 -7 2 3 651
10 651 4 0 9 -4 12 -8z m746 -62 c3 -4 56 -13 118 -18 63 -6 116 -13 118 -15
3 -3 0 -145 -7 -316 l-13 -311 -50 1 c-28 0 -112 6 -186 12 l-135 12 -5 115
c-3 63 -3 211 -1 328 l4 213 76 -7 c42 -3 78 -10 81 -14z m-1642 -596 c24 -4
32 -10 32 -25 0 -19 -55 -79 -73 -79 -5 0 -47 27 -94 59 l-85 60 94 -5 c51 -3
108 -7 126 -10z m503 -40 c41 -6 48 -10 70 -50 l24 -44 -27 -23 c-73 -59 -61
-169 22 -212 39 -20 150 -20 192 1 57 27 67 50 73 175 3 62 8 115 10 118 5 5
342 -18 368 -25 29 -9 19 -36 -31 -83 -60 -56 -72 -78 -72 -129 0 -45 26 -84
70 -107 37 -19 152 -20 188 -1 60 31 69 52 76 175 4 63 9 117 11 120 7 6 362
-21 375 -29 9 -5 8 -16 -4 -39 -9 -17 -20 -31 -24 -31 -19 0 -72 -65 -78 -96
-5 -30 -8 -32 -26 -23 -11 6 -29 26 -40 45 -15 25 -27 34 -42 32 -46 -7 -27
-64 68 -203 51 -75 70 -143 86 -310 11 -116 10 -124 -14 -219 -21 -80 -33
-107 -67 -147 -74 -89 -187 -152 -394 -220 -176 -58 -268 -74 -385 -64 -107 8
-148 27 -227 107 -56 57 -74 88 -206 353 -80 160 -150 310 -157 335 -15 56
-44 112 -112 219 l-54 84 33 31 c36 33 40 54 42 210 l1 69 103 -7 c56 -4 123
-9 148 -12z"/>
<path d="M2435 4515 c-33 -7 -94 -26 -135 -41 -41 -15 -109 -37 -151 -49 -169
-48 -338 -170 -414 -298 -79 -133 -148 -416 -119 -491 5 -13 44 -24 44 -13 0
4 59 148 83 202 68 156 110 219 206 315 l97 95 104 32 c197 60 422 89 559 73
95 -12 238 -51 317 -85 49 -22 66 -38 158 -155 78 -98 114 -225 102 -356 -19
-208 -82 -430 -153 -542 -38 -58 -39 -85 -6 -90 43 -6 203 214 227 313 27 108
56 296 56 366 0 180 -49 289 -225 505 -56 69 -224 143 -485 214 -85 23 -177
25 -265 5z"/>
</g>
</svg>
